# xmcd
#
# Track frame offsets:
# 150
# 9485
# 26619
# 38055
# 66747
# 79042
# 97617
# 113322
# 126817
# 140550
# 152772
# 170515
# 187682
# 202690
# 219597
# 228780
# 241962
# 255672
# 270297
# 285075
#
# Disc length: 4052 seconds
#
#
# Revision: 0
# Processed by: cddbd v1.5.2PL0 Copyright (c) Steve Scherf et al.
# Submitted via: FreeRIP 2.96 
#
DISCID=f20fd214
DTITLE=Hector - 20 suosikkia
DYEAR=1996
DGENRE=Pop/Funk
TTITLE0=Palkkasoturi
TTITLE1=Kuningatar
TTITLE2=Heinäpellolla
TTITLE3=Suomi-neito
TTITLE4=Olen hautausmaa
TTITLE5=Yksinäinen tinasotamies
TTITLE6=Lumi teki enkelin eteiseen
TTITLE7=Lapsuuden loppu
TTITLE8=Olet lehdetön puu
TTITLE9=Perjantai on mielessäin
TTITLE10=Herra Mirandos
TTITLE11=Jatkuvuus
TTITLE12=Asfalttiprinssi
TTITLE13=Sudenkorento
TTITLE14=Takataan Roos
TTITLE15=Jäävalssi
TTITLE16=Ake, Make, Pera ja mä
TTITLE17=Laura (Sua kahdesti kaipaan)
TTITLE18=Mandoliinimies
TTITLE19=Suzanne
EXTD=TRG - For private use only.
EXTT0=
EXTT1=
EXTT2=
EXTT3=
EXTT4=
EXTT5=
EXTT6=
EXTT7=
EXTT8=
EXTT9=
EXTT10=
EXTT11=
EXTT12=
EXTT13=
EXTT14=
EXTT15=
EXTT16=
EXTT17=
EXTT18=
EXTT19=
PLAYORDER=
